# xmcd CD database file
#
# Track frame offsets:
#	150
#	28011
#	52105
#	80943
#	109848
#	135680
#	177968
#	185479
#	202407
#	234619
#
# Disc length: 3443 seconds
#
# Revision: 0
# Processed by: cddbd v1.5.2PL0 Copyright (c) Steve Scherf et al.
# Submitted via: CDex 1.51
#
DISCID=990d710a
DTITLE=Jani MOder 4tet - Momentum
DYEAR=2008
DGENRE=Jazz
TTITLE0=Dearly beloved
TTITLE1=Finders kepers
TTITLE2=Thank you
TTITLE3=It`s al good
TTITLE4=Almost there
TTITLE5=Sometimes
TTITLE6=Out of the blue
TTITLE7=Escape
TTITLE8=Dangerous goods
TTITLE9=Fishing for a perfect day
EXTD=YEAR: 2008
EXTT0=
EXTT1=
EXTT2=
EXTT3=
EXTT4=
EXTT5=
EXTT6=
EXTT7=
EXTT8=
EXTT9=
PLAYORDER=
